<?xml version="1.0" encoding="UTF-8" standalone="no"?>
<svg
   xmlns:dc="http://purl.org/dc/elements/1.1/"
   xmlns:cc="http://creativecommons.org/ns#"
   xmlns:rdf="http://www.w3.org/1999/02/22-rdf-syntax-ns#"
   xmlns:svg="http://www.w3.org/2000/svg"
   xmlns="http://www.w3.org/2000/svg"
   viewBox="0 0 480 600"
   height="600"
   width="480"
   version="1.1"
   id="svg3390">
  <metadata
     id="metadata3396">
    <rdf:RDF>
      <cc:Work
         rdf:about="">
        <dc:format>image/svg+xml</dc:format>
        <dc:type
           rdf:resource="http://purl.org/dc/dcmitype/StillImage" />
        <dc:title></dc:title>
      </cc:Work>
    </rdf:RDF>
  </metadata>
  <defs
     id="defs3394" />
  <g
     transform="translate(2.5052223,22.546972)"
     id="g3400">
    <path
       id="path3406"
       d="M 256.8918,466.04325 C 194.07159,452.79043 132.59942,416.57716 90.866958,368.23798 50.152879,321.07841 25.670211,267.39419 16.980937,206.22486 14.479359,188.61466 14.481901,185.5181 17,183 c 4.481665,-4.48167 10.48281,-1.22362 11.379385,6.17792 5.648109,46.62705 13.780855,74.70934 31.916457,110.20722 39.804658,77.912 114.121898,135.00978 199.061588,152.9386 6.78607,1.43239 12.59343,3.22681 13.70828,4.23573 4.1974,3.7986 0.9283,11.51713 -4.81571,11.37017 -1.5125,-0.0387 -6.62369,-0.88757 -11.3582,-1.88639 z M 151.59284,451.48716 C 95.065837,417.53623 51.567046,370.09528 22.345348,310.52639 14.728364,294.99905 13.788432,291.35053 16.75,288.80699 c 5.924842,-5.08856 7.910371,-3.30057 17.076363,15.37744 28.435294,57.94402 72.723147,105.61628 127.906797,137.68123 9.78578,5.68611 11.45467,9.03742 6.81229,13.67979 -1.35,1.35 -3.27679,2.45455 -4.28176,2.45455 -1.00498,0 -6.70686,-2.93078 -12.67085,-6.51284 z m 136.70951,-7.05862 C 249.22542,439.69303 211.66027,426.97735 178.23887,407.17239 104.42883,363.4338 55.152055,289.21702 42.345149,202.5 41.019894,193.52655 40.56372,184.06858 40.536457,165 c -0.0432,-30.21379 1.429076,-44.05644 5.07334,-47.70071 2.510522,-2.51052 4.49142,-2.85067 7.433026,-1.27637 3.633865,1.94478 4.012752,4.21498 2.526606,15.13883 -3.331648,24.48913 -2.79462,52.39519 1.4941,77.63924 C 75.031288,314.56195 154.14963,399.83918 258,425.37917 c 21.78366,5.35727 32.85622,6.74322 58.5,7.32243 25.50448,0.57607 26.5,0.83515 26.5,6.89668 0,5.93477 -1.83302,6.41606 -23.97251,6.29448 -10.74012,-0.059 -24.56643,-0.71789 -30.72514,-1.46422 z M 297.5,419.87767 c -27.82531,-2.63425 -59.26573,-11.28989 -84.78337,-23.3411 -41.10552,-19.41291 -79.09592,-52.49294 -105.3788,-91.7583 C 98.889006,292.15613 85.978297,266.59556 80.499225,251.64329 61.098506,198.69918 60.363592,136.29487 78.510849,82.802889 80.43325,77.1363 82.765754,71.9375 83.694192,71.25 c 3.921368,-2.90374 10.277592,-0.248465 10.504277,4.3881 0.05007,1.024045 -1.747576,7.771571 -3.99476,14.994503 C 81.764998,117.75643 78.411749,142.78401 79.301934,172 c 0.640776,21.03037 2.390461,33.7892 7.219248,52.64329 22.327288,87.17734 92.504788,156.06706 179.978818,176.67616 20.48208,4.82563 32.25694,6.11044 56,6.11044 22.94151,0 35.3022,-1.27792 53.699,-5.5517 10.78062,-2.50446 13.75476,-2.24574 15.76946,1.37181 1.37294,2.46523 1.37369,3.03477 0.007,5.5 -1.27833,2.30618 -2.89336,3.09485 -10.00697,4.88674 -25.64949,6.46102 -57.38016,8.80542 -84.46868,6.24093 z m 11,-24.95081 C 277.78347,393.25949 248.25439,385.41033 220.06302,371.4193 196.8548,359.90135 181.0833,348.81403 162.63921,331.0505 124.19367,294.02357 101.49287,249.77968 93.347062,196 c -2.399365,-15.84092 -2.38344,-48.24772 0.03135,-63.79707 4.657504,-29.99065 13.807718,-56.76899 27.809918,-81.386503 6.86831,-12.07528 9.76274,-14.388955 14.28989,-11.422653 4.38542,2.873434 4.21794,5.742981 -0.83855,14.367979 -15.36227,26.203871 -25.49104,57.293017 -28.71994,88.152717 -1.62955,15.57419 -0.68076,44.25397 1.95469,59.08553 10.67184,60.05819 44.24063,111.05626 95.51462,145.10683 61.18621,40.63318 139.18574,47.14143 207.08252,17.27889 C 415.95592,360.97357 421.39867,359 422.56657,359 c 2.85642,0 5.68343,3.31325 5.68343,6.66097 0,4.00608 -3.38298,6.35346 -17.55298,12.17962 -23.40616,9.62373 -48.9435,15.66319 -70.68849,16.71751 -5.77969,0.28023 -12.30853,0.63661 -14.50853,0.79197 -2.2,0.15535 -9.85,-0.0351 -17,-0.42321 z m -1.51236,-25.95904 c -6.3318,-0.45168 -17.2836,-1.98977 -24.33735,-3.41799 -89.47862,-18.11738 -155.72247,-91.91138 -164.64085,-183.40578 -5.31801,-54.55794 13.23885,-111.531752 49.99663,-153.501173 8.68394,-9.915175 12.11913,-11.374825 16.48801,-7.00594 3.15076,3.150763 1.82974,6.66652 -5.74408,15.287285 C 167.62389,49.588309 159.7104,61.19919 152.11759,76 c -10.57568,20.615352 -16.29391,38.61965 -19.69145,62 -2.46038,16.93123 -1.52992,46.97639 1.96845,63.56237 7.99946,37.92595 25.49119,70.35252 52.58068,97.47529 49.96793,50.02931 121.50741,68.41757 190.02473,48.84328 19.2561,-5.50116 39.93325,-15.52665 56.42154,-27.35645 4.21892,-3.02694 8.52053,-5.9583 9.55913,-6.51415 4.64348,-2.48511 10.56186,4.30875 8.22378,9.44029 -1.647,3.61477 -24.0517,18.07919 -39.70445,25.6331 -33.11067,15.97896 -67.50993,22.52363 -104.51236,19.88409 z M 311,343.32898 C 234.49213,337.86119 167.71738,282.81729 148.91158,209.71594 141.95726,182.68328 141.29903,153.24828 147.0507,126.5 150.30856,111.34923 155.02325,98.208191 162.65003,83.020619 171.3141,65.767461 182.21071,50.656175 195.47517,37.499094 206.09837,26.961893 225.48094,12 228.5083,12 231.99818,12 235,14.821688 235,18.102159 c 0,3.537484 -1.6172,5.201442 -13.02136,13.397841 -27.09524,19.473908 -49.21348,51.296421 -59.003,84.89029 -24.08761,82.65949 17.53295,168.9094 97.02436,201.06268 21.2998,8.61551 39.19235,11.9873 63,11.87215 26.64417,-0.12886 47.3483,-4.78593 70.95894,-15.96109 18.32986,-8.67571 29.49642,-16.76246 46.37185,-33.58219 16.10496,-16.05181 17.64554,-16.89642 22.31044,-12.23152 3.38679,3.38679 2.62417,6.21744 -3.61556,13.42005 -31.2641,36.08862 -74.6979,58.04098 -122.70703,62.01875 -11.47321,0.9506 -15.93486,1.0105 -25.31864,0.33986 z M 300.5,316.59867 C 249.59931,308.12834 207.84858,277.58527 185.06502,232.15132 167.53542,197.19457 164.72837,153.82866 177.5049,115.35573 188.01335,83.712504 209.85353,55.240693 238.04322,36.435338 252.62762,26.706086 274.48665,17 281.81347,17 c 5.12936,0 8.07254,6.123524 4.93653,10.270842 -0.6875,0.909206 -5.3,3.072219 -10.25,4.806696 -52.35898,18.346551 -89.03077,65.725004 -93.40269,120.672462 -2.73145,34.32956 7.02235,68.06394 27.56486,95.33555 20.24937,26.88245 48.75938,45.25063 82.33783,53.04789 12.09655,2.80895 37.23396,3.56301 50.5,1.51488 47.28053,-7.29957 85.64329,-35.9067 106.1202,-79.13387 C 454.04253,214.17881 455.15122,213 459.50921,213 c 2.66372,0 6.49079,4.25144 6.49079,7.21053 0,1.06745 -2.76145,7.35723 -6.13656,13.97729 -17.25896,33.85234 -47.02316,60.56452 -82.83649,74.34242 -15.91528,6.12283 -30.22244,8.69001 -50.52695,9.0662 -11.83466,0.21927 -20.74015,-0.12249 -26,-0.99777 z M 310,291.38419 C 252.95195,284.23564 209.37943,244.9348 197.41614,189.83763 c -2.19826,-10.12414 -2.96546,-31.59456 -1.49872,-41.94242 4.48767,-31.66057 19.49755,-59.751387 42.75812,-80.021305 17.59525,-15.333001 38.49891,-25.42446 60.82884,-29.365754 9.3327,-1.647247 32.72291,-2.19645 40.957,-0.961672 6.87623,1.031155 9.56435,6.116381 5.95623,11.267681 -1.56119,2.228917 -1.78552,2.250448 -16.75,1.607675 -12.09796,-0.519645 -17.18198,-0.303133 -25.12089,1.069821 -25.26959,4.370115 -47.71893,16.287119 -64.80845,34.402907 -36.92823,39.145877 -41.64497,98.025867 -11.42079,142.568227 5.39324,7.94819 18.44883,21.43368 26.59535,27.47109 14.13794,10.47766 33.94994,18.69157 50.97344,21.13322 12.75519,1.82946 33.30424,0.7117 45.61373,-2.48114 30.74968,-7.97586 58.00959,-29.87461 72.52816,-58.26417 7.80049,-15.25305 11.63954,-30.27535 12.6045,-49.32179 0.70741,-13.96289 1.58175,-16 6.86734,-16 5.46867,0 6.50055,2.2364 6.49598,14.07874 -0.0127,33.04192 -13.36667,65.2028 -36.92555,88.92961 -17.82084,17.94785 -41.31077,30.56197 -66.09523,35.4932 -7.594,1.51094 -30.59538,2.68208 -36.9752,1.88264 z m -4.5784,-26.94557 c -20.54951,-3.45396 -39.79156,-13.5591 -54.93326,-28.8487 -20.76385,-20.96669 -30.46717,-46.22212 -29.2343,-76.08992 0.63541,-15.39352 3.31484,-25.88272 10.21787,-40 15.70893,-32.126136 45.5203,-52.792086 81.55861,-56.538365 33.02407,-3.432942 67.53597,10.989994 88.11929,36.826108 11.14006,13.982967 17.64832,27.634507 21.07562,44.207607 2.55937,12.37617 2.06684,33.51689 -1.05259,45.18008 -13.82889,51.7045 -63.55399,84.0365 -115.75124,75.26319 z m 35.50554,-13.92329 c 28.44561,-5.98372 52.85082,-26.24564 63.60612,-52.80765 12.8687,-31.78142 6.49012,-68.01391 -16.33311,-92.77762 C 376.58736,92.329919 363.92971,84.410016 347.28832,79.331473 339.3717,76.915515 336.96259,76.649495 323,76.649495 c -14.02618,0 -16.35577,0.259977 -24.5,2.734153 -33.27436,10.108576 -57.08873,37.172142 -62.56143,71.097212 -1.62958,10.1017 -0.66753,27.86882 2.00255,36.9832 9.0144,30.77081 32.97674,54.20335 63.49907,62.09512 10.97371,2.83734 28.52388,3.2623 39.48695,0.95615 z m -36.81517,-12.56028 c -25.0609,-6.5631 -45.33462,-25.61658 -53.68638,-50.45505 -5.28767,-15.72576 -4.36978,-37.04492 2.27968,-52.94841 11.65285,-27.87006 39.69212,-46.561864 69.79473,-46.52722 21.26424,0.02447 38.54196,7.207802 54.05957,22.47563 16.36919,16.10569 23.20691,33.90344 22.22892,57.85913 -0.36993,9.06153 -1.02437,12.77607 -3.50639,19.90208 -8.68936,24.94762 -28.68056,43.47201 -53.69206,49.75255 -10.59299,2.65996 -27.19627,2.63395 -37.47807,-0.0587 z m 31.35934,-12.46649 c 28.98005,-6.13876 49.56328,-31.55208 49.51391,-61.1329 -0.0176,-10.5673 -1.90968,-19.28207 -5.90435,-27.19545 -8.17467,-16.19395 -20.46099,-26.89467 -37.59047,-32.73929 -6.78119,-2.31376 -9.65507,-2.72825 -18.9904,-2.73895 -9.64008,-0.0111 -12.05631,0.35522 -19.54417,2.96263 -18.72407,6.52008 -33.4768,21.15437 -39.99317,39.67209 -2.98813,8.49144 -3.74251,24.70959 -1.57808,33.92661 7.7611,33.04991 41.00883,54.25205 74.08673,47.24526 z m -20.35929,-11.6196 c -17.28106,-2.10458 -34.2062,-16.20849 -40.14071,-33.44969 -7.65631,-22.24347 1.96093,-47.95756 22.40585,-59.90765 14.20093,-8.30046 34.46718,-8.60196 48.98236,-0.72871 28.94415,15.69973 35.34791,54.84059 12.83508,78.45016 -12.08766,12.67653 -26.47621,17.78008 -44.08258,15.63589 z m 22.61035,-16.31855 c 7.30541,-3.28588 15.27315,-11.1319 18.58352,-18.29965 C 358.12376,175.31465 358.5,172.69948 358.5,164 c 0,-9.5787 -0.24678,-10.96857 -2.81256,-15.84021 -6.00215,-11.39629 -15.40714,-18.26344 -27.95711,-20.41316 -16.50977,-2.828 -33.5035,7.42197 -39.74232,23.97106 -1.79151,4.75217 -2.10625,7.29661 -1.76666,14.28231 0.50504,10.38951 2.77841,15.94726 9.43331,23.06189 11.0112,11.77187 27.41079,15.08102 42.06771,8.48852 z m -20.39039,-9.50971 c -11.82713,-2.81703 -20.37795,-14.56135 -19.01018,-26.10997 1.04457,-8.81981 7.1251,-17.13887 14.89608,-20.38005 5.04662,-2.10488 14.31141,-1.94769 19.32083,0.32779 5.38603,2.44656 11.88552,9.99343 13.46503,15.6349 3.7332,13.33368 -4.72616,27.54568 -18.1036,30.41463 -5.53914,1.18793 -6.03184,1.19318 -10.56816,0.1127 z m 11.35665,-14.99242 c 6.9497,-4.23752 6.12075,-15.01273 -1.43062,-18.59609 -7.40518,-3.51399 -15.27992,1.58975 -15.23577,9.87454 0.0472,8.86532 8.86387,13.47908 16.66639,8.72155 z"
       style="fill-opacity:1" />
    <path
       id="path3404"
       d="M 258,466.03196 C 234.49482,461.1211 211.6951,453.30821 189.1809,442.4494 137.64742,417.59432 96.404191,381.53115 65.098506,333.95148 41.301265,297.78345 25.720465,257.82745 18.543705,214.56457 c -1.283223,-7.73551 -2.632151,-17.32089 -2.997617,-21.30083 -0.632635,-6.88943 -0.539411,-7.36133 1.945038,-9.84577 2.033032,-2.03304 3.205926,-2.46582 5.309197,-1.95901 3.900501,0.93986 4.98071,2.90583 5.70741,10.38744 C 38.41019,293.7953 99.115604,382.57611 190,428.02657 c 23.45446,11.72936 47.13507,20.00799 71.43926,24.97482 5.4666,1.11716 10.7541,2.76861 11.75,3.66989 2.69115,2.43546 2.30287,6.79645 -0.82412,9.25614 -3.08019,2.42288 -3.26234,2.42421 -14.36514,0.10454 z m -97,-9.34928 c -9.50482,-4.96152 -28.97398,-17.5451 -39.5,-25.5302 C 87.918396,405.67729 57.444852,371.66086 35.80993,335.5 28.456904,323.21007 15,295.95602 15,293.35399 c 0,-1.04994 0.717758,-2.93372 1.595018,-4.18618 1.249162,-1.78343 2.375888,-2.21114 5.196243,-1.97251 l 3.601225,0.3047 9.580854,19 c 5.269471,10.45 11.593661,22.15684 14.053758,26.01521 29.043921,45.55188 64.705302,80.70879 108.536972,107.0016 6.68153,4.00798 11.66764,7.69633 12.30991,9.10596 1.32953,2.918 0.0341,6.82087 -2.76037,8.31643 -2.52591,1.35182 -3.07677,1.32871 -6.11361,-0.25652 z m 137.5,-11.37822 c -20.3418,-1.82738 -43.39906,-6.36888 -61,-12.01493 C 192.50756,418.85678 155.65438,396.55509 123.00023,364 67.179799,308.34892 37.321875,232.41666 40.424471,154 c 0.958265,-24.2197 2.53864,-34.74196 5.588996,-37.21199 2.458686,-1.99092 6.089135,-1.77767 8.858039,0.52031 1.467375,1.21782 1.428775,2.33516 -0.939354,27.19168 -1.466427,15.392 -0.55663,40.87001 2.102155,58.86893 16.34756,110.66645 99.201863,199.44357 209.068263,224.01344 17.16338,3.83832 35.32037,5.79677 56.09031,6.05001 13.5256,0.16492 19.12332,0.58515 20.25,1.52022 2.17845,1.80795 1.94075,6.66377 -0.44288,9.0474 -1.86738,1.86738 -3.21012,1.98885 -20.25,1.8319 -10.0375,-0.0925 -20.05,-0.32981 -22.25,-0.52744 z m 3,-25.29705 C 193.53352,410.78308 103.05996,335.63653 74.511923,231.47307 62.819158,188.80958 62.807164,139.18162 74.479343,96.666878 78.286967,82.79799 81.447308,74.289216 83.734007,71.75 87.206065,67.894528 94,70.80055 94,76.141153 94,77.507172 92.658217,82.594345 91.018259,87.445982 87.289643,98.476689 83.631851,113.35987 81.297191,127 c -2.602469,15.2048 -2.574105,58.86946 0.04839,74.5 4.32926,25.80313 10.853741,46.0063 22.606039,70 12.8287,26.1913 26.3699,45.00687 47.49891,66 19.10539,18.98252 39.78064,33.67215 64.04947,45.50674 17.31302,8.44261 29.83927,13.11298 46.89236,17.48362 22.75597,5.83227 33.07493,7.01641 60.60764,6.95495 24.96995,-0.0557 39.06878,-1.55799 56.14123,-5.98191 8.094,-2.09736 10.53093,-1.89338 12.45459,1.0425 1.3857,2.11484 1.44785,2.97445 0.39828,5.50834 -1.35526,3.2719 -4.23954,4.41473 -18.9941,7.52603 -20.01857,4.22132 -51.4167,6.18299 -71.5,4.46714 z m -8,-26.53995 C 226.14248,384.65968 167.28384,348.16442 129.85581,292 116.28238,271.63174 102.81179,240.62015 97.540704,217.60512 87.648422,174.41268 90.043341,130.01444 104.53605,87.921816 c 4.12337,-11.975931 16.75812,-38.374753 21.40791,-44.729324 2.85271,-3.898627 3.50264,-4.278318 6.84687,-4 2.89782,0.241167 3.97992,0.904907 5.01578,3.076601 1.49292,3.129899 1.71689,2.528184 -6.22749,16.730907 -12.87043,23.009345 -22.14848,51.81868 -25.60298,79.5 -1.43734,11.51756 -1.43586,39.36409 0.003,51 8.90195,72.00344 51.62353,133.80837 116.02114,167.84677 29.68791,15.69202 59.47762,23.37506 94.5,24.37241 34.54733,0.98383 64.86712,-4.98744 95.63208,-18.83407 C 416.88,360.7483 421.64776,359 422.72737,359 c 3.07897,0 5.45855,3.34353 5.09324,7.15646 -0.3003,3.13452 -0.90572,3.63571 -9.68424,8.01704 -17.7933,8.88057 -44.25033,16.41567 -68.09808,19.39469 -13.96689,1.74472 -42.81807,1.69332 -56.53801,-0.10073 z M 295,367.5487 C 248.74357,360.92211 206.99527,339.62349 174.8429,306.24845 104.83123,233.57444 98.153705,120.28165 159.13712,39.779676 162.58682,35.225854 167.86071,28.9125 170.85687,25.75 c 4.50461,-4.754688 6.02307,-5.75 8.7723,-5.75 3.93423,0 6.94022,3.619801 6.01456,7.242715 -0.3172,1.241507 -3.5614,5.632285 -7.20933,9.757285 -62.59956,70.78631 -63.99139,176.82559 -3.27483,249.5 57.30263,68.58814 154.54943,88.93031 233.95978,48.9399 8.60614,-4.33398 17.79408,-9.99586 27.02034,-16.65072 3.65183,-2.63405 7.74459,-4.78918 9.09501,-4.78918 3.10375,0 6.0153,3.15552 6.0153,6.51936 0,3.4617 -3.06834,6.54233 -13.43104,13.48484 -23.78481,15.93468 -50.36612,26.84734 -78.29474,32.14305 -14.22653,2.69757 -50.04599,3.47556 -64.52422,1.40145 z m 6.5,-25.18208 C 257.15889,335.841 220.35887,316.74563 190.59108,284.81648 178.71163,272.07448 170.24143,259.90674 162.526,244.5 143.72544,206.95761 138.56848,165.62557 147.6259,125.07863 c 6.61973,-29.634229 20.76993,-57.384986 40.56835,-79.56087 8.83827,-9.899613 22.34572,-21.988464 31.67816,-28.351218 8.74174,-5.96002 12.16628,-6.370504 14.28851,-1.712696 1.98961,4.3667 0.34365,6.747797 -9.36393,13.546154 -11.80272,8.265621 -29.34009,25.787317 -38.05134,38.017336 -8.13584,11.422168 -18.62519,32.080375 -22.68822,44.683194 -9.72337,30.16024 -10.61176,64.85244 -2.4383,95.21754 20.06576,74.54606 90.79041,126.41071 167.38087,122.74576 47.8001,-2.2873 87.95208,-21.88683 120.69206,-58.91383 5.44293,-6.15565 8.01143,-7.04684 12.08543,-4.1933 1.56362,1.09521 2.22251,2.57563 2.22251,4.99366 0,2.82424 -1.21856,4.81968 -6.83545,11.19329 -25.89213,29.38044 -60.80642,49.44255 -99.78598,57.33806 -8.76966,1.77634 -14.94961,2.2542 -31.87857,2.46496 -11.55,0.1438 -22.35,0.0628 -24,-0.18005 z m 6.5,-24.9916 C 274.68056,313.14118 246.25291,300.6962 221.76595,279.62371 195.00632,256.59547 175.79519,221.00847 171.05049,185.67764 169.552,174.5193 169.76303,152.11909 171.47139,141 179.65458,87.738723 215.36115,42.488477 265.1728,22.254027 c 13.76739,-5.592579 17.82792,-6.25331 20.7111,-3.370124 2.57311,2.573109 2.73137,6.24931 0.36136,8.394135 -0.9651,0.873408 -5.1276,2.794789 -9.25,4.269736 C 242.21505,43.991747 213.41363,69.254 197.24296,101.5 c -10.17671,20.29341 -14.54158,38.83079 -14.59872,62 -0.0411,16.66937 1.30159,26.63111 5.52623,41 10.24518,34.84595 37.2143,67.19621 70.08269,84.06625 30.90437,15.86198 66.05706,19.83582 100.074,11.31287 38.72371,-9.70224 72.08198,-37.03441 90.29328,-73.98201 C 454.17065,214.63669 455.48785,213 459,213 c 2.94026,0 5.36269,2.18733 6.48168,5.85263 1.10119,3.60698 -9.73319,24.41898 -19.38964,37.24599 -23.02986,30.59139 -55.12486,51.00193 -92.59204,58.88311 -9.78382,2.05802 -36.90974,3.48484 -45.5,2.39329 z m 1.03332,-26.46932 c -18.792,-2.08444 -38.22825,-8.84856 -54.75294,-19.0549 C 243.52937,265.21053 224.3554,246.63649 217.27162,236 c -15.18534,-22.80122 -21.66904,-44.31478 -21.69917,-72 -0.0185,-17.03152 1.38305,-25.96834 6.46506,-41.22251 14.45721,-43.394866 52.97065,-76.316416 98.58465,-84.270832 9.39372,-1.638126 33.03626,-1.967974 40.31858,-0.562503 6.77934,1.308401 9.34031,6.774798 5.14119,10.973914 -1.77475,1.774748 -3.06369,1.877918 -17.25,1.38074 C 317.14396,49.889189 311.24212,50.151774 304,51.403636 280.54715,55.457658 261.16738,65.193328 244.16613,81.461935 233.66506,91.510482 227.30453,99.929996 221.09611,112 c -19.98424,38.85209 -16.43532,84.65377 9.253,119.41719 30.50691,41.28433 83.04944,57.35034 131.23533,40.12804 44.94379,-16.06353 75.37412,-59.6745 75.40966,-108.07272 0.007,-9.67142 1.44613,-12.47251 6.40762,-12.47251 5.45984,0 6.59915,2.2603 6.59238,13.07874 -0.0341,54.56085 -35.82634,104.20041 -87.24944,121.0047 -16.52713,5.40082 -37.25462,7.64765 -53.71134,5.82226 z M 309.5,264.85301 c -45.29796,-5.78516 -81.49436,-41.944 -87.57939,-87.4885 -2.31921,-17.35855 0.83339,-39.04408 7.96166,-54.76514 7.1861,-15.84859 22.20492,-33.556411 36.42622,-42.948044 8.32743,-5.499367 20.85925,-11.14673 30.69151,-13.830877 7.44502,-2.032445 10.67202,-2.312158 26,-2.253647 20.36932,0.07776 26.98655,1.457364 42.7057,8.903596 77.03344,36.491092 77.60392,145.910622 0.95413,183.005682 -18.08574,8.75269 -37.32933,11.90955 -57.15983,9.37693 z m 34.30135,-14.89423 c 39.33745,-9.2199 67.36411,-44.75072 67.3704,-85.40888 0.004,-25.52803 -8.98822,-46.5797 -27.36999,-64.07621 -12.92161,-12.299305 -26.80061,-19.607252 -43.72835,-23.02503 -11.17045,-2.255358 -30.36533,-1.559486 -40.89441,1.482543 -31.32822,9.05126 -56.05269,35.568407 -62.72106,67.268747 -1.83426,8.71979 -1.85497,27.26353 -0.04,35.82451 3.49547,16.48771 11.77204,31.6322 24.08205,44.06544 22.33589,22.55948 52.28018,31.13962 83.30135,23.86888 z m -39.1392,-12.02948 c -10.76354,-2.64478 -24.06583,-9.73161 -32.12058,-17.11232 -27.60401,-25.29407 -33.41134,-64.25266 -14.39618,-96.57718 4.3128,-7.33149 17.76292,-20.78161 25.09441,-25.094413 38.1789,-22.459036 86.87549,-8.943791 107.10875,29.726953 C 396.70821,141.02721 398.5,148.74869 398.5,164 c 0,15.57039 -1.73554,22.76651 -8.80297,36.5 -6.03573,11.72869 -18.96917,24.43613 -31.33196,30.78447 -16.69821,8.5746 -36.08624,10.97354 -53.70292,6.64483 z M 337,225.44303 c 17.58848,-4.13306 34.09659,-17.37076 41.77528,-33.49921 5.21783,-10.95963 6.65253,-17.31469 6.53428,-28.94382 -0.45447,-44.6927 -47.79229,-74.815576 -88.38055,-56.23994 -17.3392,7.93546 -30.64031,23.62719 -35.41015,41.77446 -2.01669,7.6727 -2.03702,23.18223 -0.0406,30.96548 4.31302,16.81466 16.62611,32.22822 32.17812,40.28067 4.48602,2.32275 10.78602,4.85982 14,5.63794 7.81273,1.8915 21.35019,1.90276 29.34361,0.0244 z m -30.02309,-13.71885 c -32.56633,-11.10416 -44.87037,-49.91442 -24.56782,-77.49349 17.91745,-24.33913 53.31906,-27.03956 75.12724,-5.73069 27.44814,26.8197 15.66299,72.87178 -21.46783,83.88848 -8.03599,2.38427 -21.02029,2.08778 -29.09159,-0.6643 z m 31.32151,-14.08176 c 10.85975,-5.31317 18.17016,-14.8617 20.68032,-27.01169 3.23541,-15.66043 -5.44457,-32.30405 -20.78602,-39.85662 -6.03589,-2.97146 -7.48455,-3.27266 -15.67169,-3.25838 -7.65306,0.0133 -9.88813,0.41975 -14.7391,2.68005 -7.38959,3.44318 -14.71934,10.35042 -18.12368,17.07899 -8.49708,16.79418 -3.05004,37.84835 12.34835,47.72947 7.44053,4.77457 12.26798,6.01812 22.07424,5.68632 6.95724,-0.2354 9.64739,-0.81215 14.21758,-3.04814 z M 313,186.40806 c -10.99111,-4.75338 -16.90422,-17.34593 -13.55503,-28.86675 7.71605,-26.5423 46.98105,-21.14437 46.98105,6.45869 0,10.14025 -4.93089,17.97016 -13.92602,22.11357 -4.91795,2.26534 -14.60459,2.41163 -19.5,0.29449 z m 16.22978,-13.37417 c 3.93653,-3.09647 5.29047,-7.35408 3.85852,-12.1335 -2.92206,-9.75298 -16.16049,-10.59006 -20.56864,-1.30058 C 309.00633,167.00361 314.18852,175 322.5,175 c 2.69178,0 5.13932,-0.71505 6.72978,-1.96611 z"
       style="fill-opacity:1" />
    <path
       id="path3402"
       d="m 265.5,467.29799 c -1.1,-0.24588 -7.1518,-1.58113 -13.44844,-2.96721 C 167.5228,445.72347 90.712848,386.18143 49.934355,307.65223 31.365973,271.89416 20.525679,236.13459 16.098014,196.03414 14.76042,183.91983 16.123795,181.13539 23,181.93815 c 3.355187,0.3917 4.724434,3.91179 5.93385,15.25485 4.752557,44.57404 21.843705,92.06181 46.490365,129.17354 43.446945,65.42027 107.358215,109.37365 184.026885,126.55987 13.02083,2.91878 15.5489,4.24452 15.5489,8.15394 0,3.86248 -5.10092,7.20098 -9.5,6.21764 z M 149.4485,449.68516 C 124.49219,434.40698 108.80108,421.91097 86.492461,399.54855 57.425718,370.41172 37.033386,341.31263 19.65427,304.17298 c -5.254097,-11.22815 -5.485834,-14.38134 -1.200424,-16.3339 5.0369,-2.29497 6.903651,-0.63173 12.141419,10.81778 13.010378,28.44006 33.382047,58.93677 55.060443,82.42636 22.657912,24.55094 41.138572,39.43219 77.513902,62.41678 5.31257,3.35687 6.37927,4.50238 6.63439,7.12457 0.37108,3.81392 -1.90979,6.37543 -5.67693,6.37543 -1.63564,0 -7.51999,-2.93238 -14.67857,-7.31484 z M 302.5,445.36419 c -53.90744,-4.90188 -95.85941,-19.26007 -137,-46.88867 -17.82945,-11.97364 -30.7588,-22.85251 -46.58842,-39.1999 C 76.781476,315.76748 50.953087,261.6826 42.371491,199 c -3.26809,-23.87113 -1.516544,-76.50552 2.715619,-81.60496 1.605149,-1.93409 7.416697,-1.74838 9.467616,0.30254 1.806456,1.80646 1.809016,1.69512 -0.524289,22.80242 -0.547198,4.95 -1.001362,15.3 -1.009254,23 -0.06083,59.35135 18.238461,114.35583 54.061677,162.5 10.63716,14.29567 35.73306,40.04847 48.91714,50.19755 48.80969,37.57364 101.99499,56.24692 163.5,57.4046 18.2779,0.34403 21.16203,0.61465 22.25,2.08769 1.86371,2.52334 1.51486,5.76015 -0.85199,7.90517 -1.87207,1.69662 -3.86827,1.91745 -18.25,2.01895 -8.8814,0.0627 -17.94801,-0.0497 -20.14801,-0.24977 z m 2.63595,-25.45502 C 243.17725,416.02399 185.60413,389.75987 140.9995,345.03222 120.02779,324.00266 104.80951,302.74047 91.94799,276.5 80.127069,252.38259 72.627211,228.66743 68.323376,201.79707 c -2.554718,-15.95001 -2.551387,-59.38682 0.0058,-75.50798 3.804751,-23.98621 12.151427,-52.247431 16.217639,-54.911715 3.177341,-2.081874 7.176128,-1.079575 8.656639,2.169794 0.949435,2.083781 0.533338,4.413544 -2.540131,14.222412 C 81.955704,115.55961 78.719777,135.98772 78.667193,163.5 c -0.06655,34.81772 5.656986,63.60597 18.957406,95.35203 12.396491,29.5885 28.335941,53.0962 52.361441,77.2233 35.58977,35.74026 78.76504,58.85409 126.83612,67.90156 31.84942,5.99439 67.70873,5.41572 99.09013,-1.59902 13.50702,-3.01925 16.08771,-2.54672 16.08771,2.9457 0,1.94461 -0.73913,4.02599 -1.75,4.928 -0.9625,0.85886 -6.925,2.71281 -13.25,4.1199 -22.40237,4.98374 -48.55719,6.99918 -71.86405,5.5377 z M 304,394.39744 C 287.50856,392.42001 282.28017,391.6427 274,389.93726 225.43917,379.93535 177.64697,351.22943 145.91633,313.00506 118.67357,280.18701 101.60667,243.04525 94.449219,201 92.262706,188.15568 91.398492,153.42442 92.930208,139.9535 96.143681,111.6921 103.33473,87.398413 116.15283,61.5 125.24276,43.134187 127.71063,39.585744 131.66485,39.195997 135.34817,38.832949 138,41.102553 138,44.618022 c 0,1.36134 -2.01003,5.95997 -4.46674,10.219177 C 114.05385,88.608734 104.56849,124.78557 104.64918,165 c 0.0451,22.47304 2.21929,38.37041 7.99992,58.49406 21.45899,74.7035 80.3216,132.23485 155.54859,152.03067 16.43213,4.32407 34.30378,6.46554 54.00109,6.47066 20.26223,0.005 35.01111,-1.66651 52.30122,-5.92835 14.48923,-3.57145 20.38555,-5.58075 35.84369,-12.21453 10.01826,-4.29929 12.21711,-4.91802 14.22552,-4.00293 2.82498,1.28715 4.09397,5.39949 2.64649,8.57635 -1.70465,3.7413 -27.97549,14.40628 -48.2176,19.57455 -17.48697,4.46483 -30.89077,6.15411 -51.4981,6.49032 -11,0.17947 -21.575,0.13746 -23.5,-0.0934 z m 0,-26.07627 C 231.25144,360.86434 169.91461,318.33409 138.45467,253.53394 123.1341,221.97712 117.33428,194.35307 118.29234,157.50242 c 0.45157,-17.36924 0.9977,-23.14087 3.15701,-33.36421 7.98681,-37.813918 24.98282,-71.566706 49.59994,-98.501767 4.73636,-5.182324 5.59239,-5.710309 8.81677,-5.438016 2.61139,0.220527 3.95498,0.988809 4.9995,2.858771 1.84698,3.306587 0.89381,5.122299 -8.14972,15.5246 -65.71178,75.584862 -61.12342,190.417262 10.4347,261.148002 16.43794,16.24787 32.20406,27.54593 51.34946,36.7972 64.48082,31.15785 140.54806,24.52517 197.24033,-17.19837 3.98219,-2.93075 8.29994,-5.32863 9.59502,-5.32863 3.15551,0 5.66465,2.9714 5.66465,6.70828 0,3.62544 -4.19325,7.39321 -17.7541,15.95262 -34.49933,21.77549 -71.89157,32.607 -111.08764,32.17906 -8.06204,-0.088 -16.23326,-0.32147 -18.15826,-0.51879 z m -3,-26.41145 C 255.62173,336.06871 212.31375,312.00794 183.65387,276.71534 157.3766,244.35675 143.87592,206.35031 143.85259,164.66876 143.8352,133.60254 149.70736,109.0456 163.62069,82 174.20901,61.417767 188.74982,42.959978 205.94682,28.272109 213.53643,21.789869 227.42288,12 229.02801,12 c 0.47326,0 2.0787,1.04788 3.56765,2.328622 4.41363,3.796445 2.90771,6.461801 -8.3539,14.785743 C 194.43315,51.147208 173.64814,80.233341 163.08944,114.68973 157.30357,133.57085 156.5,139.5232 156.5,163.5 c 0,19.25253 0.29077,23.35851 2.32828,32.87811 4.46988,20.88402 12.92683,41.45095 23.89923,58.12189 42.91871,65.20863 122.54183,91.64039 196.95251,65.38055 23.14366,-8.1675 42.27671,-20.67278 62.06144,-40.56309 C 449.57426,271.44286 456.60107,265 457.3566,265 c 0.75552,0 2.55937,0.93266 4.00854,2.07258 4.42026,3.47697 3.55439,6.41914 -4.61514,15.68198 -28.62823,32.45947 -67.32742,53.02783 -110.61364,58.79041 -11.47978,1.52827 -34.64289,1.71545 -45.13636,0.36475 z m 6.5,-24.85352 C 289.10698,314.91405 271.39999,309.70619 255.60429,301.79299 237.86478,292.90601 226.59785,284.52751 212,269.36728 191.13283,247.6962 177.88569,222.00193 172.3697,192.5 c -2.55671,-13.67445 -2.58578,-43.11104 -0.0553,-56 4.39849,-22.40353 14.53192,-45.754548 27.33956,-63 8.36882,-11.268601 23.43499,-26.21054 34.09284,-33.811724 10.25735,-7.315552 26.12613,-15.590996 37.58287,-19.59918 10.57942,-3.701252 11.69081,-3.760642 14.49601,-0.774645 4.39808,4.681546 1.8134,8.66674 -7.57047,11.67255 -39.12774,12.533261 -72.85577,45.28333 -87.59622,85.056329 -6.24924,16.86182 -8.07486,27.88367 -8.02621,48.45667 0.0342,14.46635 0.45384,19.86498 2.13752,27.5 12.7203,57.68284 55.92901,99.71916 113.72969,110.64381 11.98648,2.26551 35.73025,2.27914 48.22356,0.0277 27.99598,-5.04525 53.12285,-17.77056 72.97157,-36.95588 12.63736,-12.21498 21.03984,-23.56751 28.51608,-38.52786 C 455.48584,212.63085 458.30638,210.30638 463,215 c 3.06476,3.06476 2.43771,7.25619 -2.59055,17.31594 -18.63155,37.27511 -50.23339,64.76737 -89.29717,77.68475 -6.38675,2.11193 -15.88728,4.56618 -21.11228,5.45387 -11.34764,1.9279 -32.76765,2.73513 -42.5,1.60164 z m -8,-27.71768 C 281.46739,286.08466 261.25771,277.12691 245.94924,265.60264 201.96524,232.49135 184.42117,174.93584 202.32869,122.5 214.65025,86.420694 244.51716,56.415558 280.53391,43.932845 295.49195,38.748677 303.8407,37.5 323.5444,37.5 c 15.39492,0 18.43054,0.253043 20.67416,1.723359 3.68253,2.413276 4.42026,5.444047 2.08613,8.570357 l -1.90637,2.553371 -20.94916,0.149252 c -19.55384,0.139311 -21.57958,0.330113 -30.41415,2.864679 -71.24925,20.440823 -105.71013,98.555112 -72.04242,163.302372 14.95255,28.75567 41.5124,50.10933 72.50741,58.29474 26.90235,7.10458 54.274,4.21486 80,-8.44589 13.14494,-6.46912 21.43326,-12.58008 31.84919,-23.48231 19.85557,-20.78259 30.22489,-45.37133 31.38578,-74.42501 0.46862,-11.72829 0.84445,-14.18434 2.41011,-15.75 2.47237,-2.47237 6.36292,-2.34692 9.00004,0.2902 2.02822,2.02822 2.11386,2.80478 1.57155,14.25 -1.69477,35.76766 -15.06522,65.58346 -40.05463,89.32097 -17.40946,16.53728 -41.40414,28.61292 -65.04741,32.73596 -11.06004,1.92871 -34.11827,1.87068 -45.11463,-0.11353 z m 13.93506,-24.47709 C 301.47176,264.01868 290.71834,260.99913 278.5,255.05168 226.89378,229.93166 206.41736,168.00573 232.94059,117.26837 246.26965,91.770693 269.1446,73.604871 297.5,65.999441 c 11.30333,-3.031757 30.07673,-3.740251 42.3463,-1.598118 33.82945,5.906249 62.52815,28.738621 76.04359,60.499447 5.76805,13.55471 7.55291,23.01042 7.47477,39.59923 -0.0792,16.80508 -2.28751,27.75741 -8.24693,40.90063 -6.75944,14.90763 -20.56036,31.8152 -33.61773,41.18524 -18.97189,13.61433 -42.92717,20.04637 -68.06494,18.27556 z m 21.97145,-12.89934 C 345.51702,250.50069 359.3734,245.57925 368.5,240.20811 379.16645,233.93076 392.93076,220.16645 399.20811,209.5 425.64997,164.57015 408.42603,107.46176 361.5,84.473444 340.23963,74.058327 314.40635,72.776989 292.20377,81.036332 253.30129,95.50802 229.18676,136.0492 235.36334,176.59604 c 7.38222,48.46145 52.2637,82.27225 100.04317,75.36605 z m -27.40852,-13.38207 c -19.2942,-4.04263 -37.72848,-16.61068 -48.52034,-33.08002 -9.25301,-14.12092 -13.7738,-33.44161 -11.68836,-49.95306 6.59278,-52.1983 60.25578,-81.969231 107.60313,-59.695614 18.92012,8.900594 32.66718,24.532614 39.75218,45.202884 2.99514,8.73824 3.23866,10.41958 3.25101,22.44579 0.0155,15.11692 -1.44322,21.78484 -7.43819,34 -9.50409,19.36522 -27.73622,34.42815 -48.45742,40.03432 -8.18897,2.21555 -26.29903,2.76444 -34.50201,1.0457 z m 28.20279,-12.67011 c 7.14258,-1.46928 20.21252,-7.88239 26.11335,-12.8132 10.02406,-8.37623 17.34813,-19.57527 21.31795,-32.59671 2.46625,-8.08956 2.45449,-24.6854 -0.0234,-33 -4.94971,-16.60897 -18.13505,-32.64052 -32.74361,-39.81171 -31.52659,-15.476068 -69.51391,-2.61649 -84.72398,28.68102 -5.14743,10.59178 -6.61666,17.02964 -6.53403,28.63069 0.12296,17.26322 5.85874,30.53091 18.84604,43.59358 8.61083,8.66081 17.58419,13.95122 28.54688,16.83034 6.61607,1.73757 21.88144,1.99163 29.20078,0.48599 z m -25.92627,-13.44895 c -17.44897,-4.69967 -30.878,-17.78347 -35.81093,-34.89033 -1.30025,-4.50913 -1.59986,-8.40111 -1.25084,-16.24863 0.42899,-9.64572 0.72972,-10.8657 4.60749,-18.69137 17.4653,-35.24645 64.50842,-38.15173 86.69602,-5.35416 10.46959,15.4761 10.21876,38.40986 -0.59725,54.60697 -11.63886,17.42932 -33.78814,25.92558 -53.64449,20.57752 z m 28.69643,-14.94623 c 10.14245,-5.13957 16.76672,-13.4258 19.61216,-24.53263 4.30568,-16.80673 -4.18269,-34.74408 -20.14534,-42.57045 -5.35406,-2.62506 -6.9208,-2.91124 -15.93776,-2.91124 -8.94179,0 -10.6072,0.29807 -15.73799,2.81673 -3.1559,1.54921 -7.78953,4.86827 -10.29696,7.3757 -18.2364,18.23641 -13.42365,48.17316 9.62193,59.85124 9.4706,4.79911 23.37994,4.7867 32.88396,-0.0294 z m -26.51181,-11.8816 c -8.97907,-4.1812 -13.46525,-11.46963 -13.44975,-21.85101 0.0274,-18.32266 19.77537,-29.54474 35.63523,-20.25024 14.20553,8.32499 15.92617,27.97601 3.38919,38.70719 -7.20191,6.16457 -16.86973,7.4476 -25.57467,3.39406 z M 329,173.10847 c 3.66717,-2.64223 5.14503,-6.04976 4.60092,-10.60847 -1.34802,-11.29396 -17.18312,-13.16552 -21.57998,-2.55056 -2.42415,5.85243 0.61172,12.35457 6.97957,14.94864 3.06203,1.24738 6.68415,0.59913 9.99949,-1.78961 z"
       style="fill-opacity:1" />
  </g>
</svg>
